<?xml version="1.0" encoding="UTF-8"?>
<svg width="395px" height="69px" viewBox="0 0 395 69" version="1.1" xmlns="http://www.w3.org/2000/svg" xmlns:xlink="http://www.w3.org/1999/xlink">
    <!-- Generator: Sketch 42 (36781) - http://www.bohemiancoding.com/sketch -->
    <title>grootstrap-logo</title>
    <desc>Created with Sketch.</desc>
    <defs></defs>
    <g id="Page-1" stroke="none" stroke-width="1" fill="none" fill-rule="evenodd">
        <g id="Artboard" transform="translate(-35.000000, -33.000000)">
            <g id="grootstrap-logo" transform="translate(35.000000, 33.000000)">
                <path d="M4.57059168,36.5647335 L0,31.9941418 L0,4.57059168 L4.57059168,0 L31.9941418,0 L27.4235501,9.14118336 L9.14118336,9.14118336 L9.14118336,27.4235501 L22.8529584,27.4235501 L22.8529584,18.2823667 L18.2823667,13.711775 L31.9941418,13.711775 L31.9941418,36.5647335 L4.57059168,36.5647335 Z M34.5412944,36.5647335 L34.5412944,0 L61.9648445,0 L66.5354362,4.57059168 L66.5354362,18.2823667 L61.9648445,22.8529584 L59.6795487,22.8529584 L66.5354362,36.5647335 L57.3942528,36.5647335 L48.2530695,18.2823667 L48.2530695,13.711775 L57.3942528,13.711775 L57.3942528,9.14118336 L43.6824778,9.14118336 L43.6824778,36.5647335 L34.5412944,36.5647335 Z M91.9355473,27.4235501 L91.9355473,9.14118336 L78.2237722,9.14118336 L78.2237722,27.4235501 L91.9355473,27.4235501 Z M73.6531805,36.5647335 L69.0825888,31.9941418 L69.0825888,4.57059168 L73.6531805,0 L96.5061389,0 L101.076731,4.57059168 L101.076731,31.9941418 L96.5061389,36.5647335 L73.6531805,36.5647335 Z M126.476842,27.4235501 L126.476842,9.14118336 L112.765067,9.14118336 L112.765067,27.4235501 L126.476842,27.4235501 Z M108.194475,36.5647335 L103.623883,31.9941418 L103.623883,4.57059168 L108.194475,0 L131.047433,0 L135.618025,4.57059168 L135.618025,31.9941418 L131.047433,36.5647335 L108.194475,36.5647335 Z M149.591657,36.5647335 L149.591657,9.14118336 L138.165178,9.14118336 L138.165178,0 L174.729911,0 L165.588728,9.14118336 L158.73284,9.14118336 L158.73284,36.5647335 L149.591657,36.5647335 Z M177.277064,36.5647335 L177.277064,27.4235501 L200.130022,27.4235501 L200.130022,22.8529584 L181.847655,22.8529584 L177.277064,18.2823667 L177.277064,4.57059168 L181.847655,0 L213.841797,0 L209.271206,9.14118336 L186.418247,9.14118336 L186.418247,13.711775 L209.271206,13.711775 L209.271206,27.4235501 L200.130022,36.5647335 L177.277064,36.5647335 Z M227.815429,36.5647335 L227.815429,9.14118336 L216.38895,9.14118336 L216.38895,0 L252.953683,0 L243.8125,9.14118336 L236.956612,9.14118336 L236.956612,36.5647335 L227.815429,36.5647335 Z M255.500836,36.5647335 L255.500836,0 L282.924386,0 L287.494978,4.57059168 L287.494978,18.2823667 L282.924386,22.8529584 L280.63909,22.8529584 L287.494978,36.5647335 L278.353794,36.5647335 L269.212611,18.2823667 L269.212611,13.711775 L278.353794,13.711775 L278.353794,9.14118336 L264.642019,9.14118336 L264.642019,36.5647335 L255.500836,36.5647335 Z M287.756835,36.5647335 L306.039201,0 L315.180385,0 L333.462751,36.5647335 L322.036272,36.5647335 L319.750976,31.9941418 L303.753905,31.9941418 L308.324497,22.8529584 L315.180385,22.8529584 L310.609793,13.711775 L299.183314,36.5647335 L287.756835,36.5647335 Z M356.577567,13.711775 L356.577567,9.14118336 L342.865792,9.14118336 L342.865792,13.711775 L356.577567,13.711775 Z M333.724608,36.5647335 L333.724608,0 L361.148158,0 L365.71875,4.57059168 L365.71875,18.2823667 L361.148158,22.8529584 L342.865792,22.8529584 L342.865792,36.5647335 L333.724608,36.5647335 Z" id="Grootstrap" fill="#FFFFFF"></path>
                <path d="M327.820744,30.9550429 L327.583413,32.6163643 L326.634086,39.4594263 C326.278089,41.9118532 325.961646,44.4038353 325.645204,46.8562622 C325.605649,47.0935938 325.645204,47.3309254 325.645204,47.5287018 C325.645204,47.5682571 325.842981,47.6473676 325.882536,47.6078123 C326.001202,47.4891465 326.119867,47.3309254 326.198978,47.1727043 C326.634086,46.3024884 327.029639,45.3927171 327.464747,44.5225011 C328.69096,41.9514085 330.075395,39.4989816 331.578495,37.1256653 C332.250935,36.0181177 332.883819,34.9501254 333.595814,33.882133 C334.46603,32.4976985 335.573577,31.2319298 336.681125,30.0452717 C338.540223,28.1466186 340.359765,26.1292997 342.535305,24.5866441 C342.851747,24.3493125 343.128634,24.1119809 343.524187,24.0328703 C344.117516,23.8746493 344.631735,24.3097572 344.394403,24.8635311 C344.077961,25.733747 343.840629,26.6435183 343.009969,27.2368474 C342.49575,27.5928448 342.100197,28.1070633 341.704645,28.5026161 C341.506868,28.7003924 341.348647,28.8586135 341.348647,29.1355004 C341.388202,29.8870506 340.873984,30.4012691 340.478431,30.9945982 C339.64777,32.1021458 338.737999,33.2096934 337.986449,34.3963516 C337.037123,35.8598966 336.166907,37.3629969 335.336246,38.9056525 C333.318927,42.5051823 331.697161,46.3024884 330.154505,50.1393497 C329.758952,51.1677868 329.640287,52.2357791 329.323845,53.2642162 C328.651405,55.2419798 328.097631,57.2988539 327.504302,59.3161728 C327.26697,60.1072782 326.950528,60.8192731 326.43631,61.4521575 C325.605649,62.4805945 324.498101,62.7179262 323.271888,62.5201498 C323.113667,62.4805945 322.91589,62.3619287 322.797225,62.2037076 C322.520338,61.7290444 322.283006,61.2148258 322.045674,60.7006073 C321.966564,60.5028309 322.006119,60.2654993 322.045674,60.0281677 C322.520338,57.2988539 322.639004,54.5299849 322.678559,51.7611159 L322.91589,44.1269484 C322.995001,42.2282954 323.192777,40.2900871 323.350998,38.391434 C323.469664,36.927889 323.58833,35.4643439 323.746551,34.0007988 C323.825662,33.3679145 323.983883,32.7350301 324.062993,32.0625905 C324.142104,31.5088167 324.221214,30.9550429 324.102549,30.4012691 C324.062993,30.243048 324.102549,30.0452717 324.142104,29.8474953 C324.26077,29.2937215 324.893654,29.214611 325.210096,28.779503 C325.447428,28.5421713 325.882536,28.5026161 326.278089,28.5421713 C326.396754,28.5817266 326.554975,28.6212819 326.634086,28.7399477 C326.792307,28.8981688 326.871418,29.1750557 327.069194,29.2541662 C327.741634,29.6497189 327.899855,30.243048 327.820744,30.9550429 Z M355.931357,42.5842928 C356.32691,44.206059 355.733581,45.9069357 355.57536,47.6473676 C355.456694,48.9922469 354.784254,50.2580156 354.111815,51.4446737 C353.518486,52.4335555 352.806491,53.382882 352.134051,54.3322085 C351.778054,54.8859824 351.263835,55.1628693 350.828727,55.558422 C349.80029,56.586859 348.732298,57.5361856 347.743416,58.5646226 C346.635868,59.7117255 345.290989,60.067723 343.906555,60.4632757 C342.680341,60.8588284 341.612349,60.4632757 340.583912,59.7908361 C340.465246,59.7117255 340.307025,59.632615 340.227914,59.5139492 C339.239033,58.4064015 338.329261,57.2988539 337.894153,55.7561983 C337.459045,54.1739875 337.182159,52.5917766 337.103048,50.9304552 C337.023937,48.5571389 337.41949,46.3420436 338.09193,44.1665037 C339.159922,40.8834161 340.544357,37.7981049 342.126567,34.8314595 C342.759452,33.5656908 343.471447,32.2999222 344.420773,31.2319298 C344.855881,30.7177113 345.330544,30.2826033 346.002984,30.3221586 C346.279871,30.3221586 346.556758,30.243048 346.833645,30.1243822 C347.189642,29.9266058 347.54564,29.9661611 347.901637,30.0848269 C348.336745,30.243048 348.692743,30.2826033 349.127851,30.2034927 C350.077177,30.0057164 351.22428,31.1528193 351.184725,32.2999222 C351.145169,32.9723618 351.382501,33.2492487 351.89672,33.4074698 C352.72738,33.6448014 353.360265,34.1194647 353.755817,34.9896806 C353.834928,35.187457 353.953594,35.3456781 354.07226,35.5038992 C355.733581,37.3234417 356.050023,39.6572027 355.931357,42.1096296 L355.931357,42.5842928 Z M346.635868,44.8784986 C345.765652,44.5225011 345.251434,44.1665037 344.737215,43.6127299 C344.420773,43.2567324 344.104331,43.3753983 343.906555,43.8896168 C343.511002,44.8784986 343.234115,45.8673804 342.838562,46.8562622 C342.087012,48.7153599 341.77057,50.6931235 341.731015,52.7499977 C341.691459,53.5015478 341.849681,54.2135427 341.968346,54.9650929 C342.047457,55.4002009 342.284789,55.7561983 342.561675,56.0330852 C342.917673,56.4681932 343.234115,56.5473038 343.708778,56.2704169 C344.104331,56.0330852 344.539439,55.7561983 344.895437,55.4397562 C347.268753,53.3037715 349.365182,50.8513446 350.907838,47.8846992 C352.094496,45.669604 352.766936,43.2567324 352.925157,40.6460845 C353.004267,39.6176474 352.885601,38.6287656 352.72738,37.6398838 C352.608715,37.1652206 352.450493,36.7301126 352.213162,36.3345599 C351.936275,35.9390072 351.659388,35.8598966 351.342946,36.0972282 C350.591396,36.7301126 349.839845,37.3234417 349.365182,38.3123235 C348.732298,39.696758 347.980748,41.0020819 347.426974,42.3865165 C347.110532,43.1380666 346.438092,43.7313957 346.635868,44.8784986 Z M371.740281,58.6832884 C371.463394,59.197507 371.067841,59.5139492 370.632733,59.7512808 C369.960294,60.067723 369.366965,60.4632757 368.65497,60.7006073 C367.942975,60.8983837 367.23098,61.1357153 366.518985,61.3730469 C365.80699,61.6103786 365.05544,61.7290444 364.343445,61.7685996 C362.603013,61.8081549 360.981247,61.2939364 359.834144,59.8699466 C359.082594,58.9601753 358.568375,57.9317383 358.014602,56.8637459 C357.77727,56.3890827 357.698159,55.9144194 357.737715,55.3606456 C358.133267,52.4335555 358.568375,49.5064654 359.043039,46.5793753 C359.478147,43.6127299 360.071476,40.6856398 360.546139,37.7189944 C360.941692,35.4247886 361.337244,33.1701381 361.772352,30.9154876 C361.930574,30.1243822 362.009684,29.3332768 362.009684,28.5421713 C362.009684,27.909287 362.286571,27.7115106 362.919455,27.909287 C363.512784,28.0279528 364.106114,28.1861739 364.699443,28.344395 C366.321209,28.7003924 367.90342,30.4012691 367.90342,32.4581432 C367.863864,33.7634672 367.547422,34.9896806 367.389201,36.2554493 C367.270535,37.2838864 366.954093,38.2727682 366.716761,39.26165 C366.400319,40.9229714 366.123432,42.5842928 365.80699,44.2456142 L365.094995,47.9638098 C364.699443,50.3766814 364.264335,52.7895529 363.868782,55.2024245 C363.750116,55.8748641 363.63145,56.5077485 363.591895,57.1801881 C363.55234,57.9712936 363.710561,58.1295146 364.462111,58.3668463 C366.677206,59.0788412 368.892301,59.197507 371.146952,58.7228437 C371.265618,58.6832884 371.423839,58.6832884 371.542505,58.6437332 C371.621615,58.6437332 371.66117,58.6832884 371.740281,58.6832884 Z M392.928722,52.1962239 C392.849611,52.0380028 392.849611,51.8402264 392.889166,51.6424501 C392.968277,51.0886763 392.651835,50.614013 392.256282,50.3766814 C391.702508,50.0206839 391.109179,50.1393497 390.594961,50.614013 C389.922521,51.2073421 389.250081,51.7611159 388.617197,52.3940002 C387.628315,53.4224373 386.599878,54.3717638 385.571441,55.3210903 C385.254999,55.5979772 384.899001,55.8353089 384.503449,56.0726405 C384.345228,56.1913063 384.107896,56.2308616 383.870564,56.3099721 C383.633233,56.3495274 383.395901,56.1913063 383.395901,55.9539747 C383.356346,55.123314 383.23768,54.3322085 383.316791,53.5411031 C383.475012,52.2753344 383.751899,51.049121 384.028785,49.8229076 C384.938557,46.0651567 386.125215,42.3865165 386.995431,38.6287656 C387.470094,36.5323362 388.063423,34.4754621 388.261199,32.2999222 C388.379865,31.2319298 388.142534,30.243048 387.786536,29.2937215 C387.628315,28.8981688 387.351428,28.6608371 386.91632,28.6212819 L385.966994,28.5026161 C384.028785,28.3048397 382.327909,28.7399477 380.943474,30.1639375 L380.350145,30.7572666 C379.361263,31.7461483 378.372382,32.7745854 377.343944,33.7239119 C376.908836,34.1194647 376.63195,34.5545726 376.513284,35.1479017 C376.394618,35.7807861 376.513284,36.1367835 377.067058,36.4136704 C377.581276,36.651002 378.13505,36.8487784 378.688824,36.492781 C379.203042,36.0972282 379.875482,36.2158941 380.429256,36.0181177 C381.022585,35.7412308 381.418137,35.1479017 382.051022,34.9105701 C382.090577,34.8710148 382.130132,34.8710148 382.169688,34.8710148 C382.525685,34.7127937 382.723461,34.8710148 382.644351,35.2665675 C382.446575,36.6905573 382.090577,38.1145471 381.774135,39.5385369 C381.141251,42.5051823 380.31059,45.3927171 379.55904,48.3593625 C379.440374,49.1109127 379.440374,49.9020181 379.163487,50.5744577 C378.530603,51.9984475 378.609713,53.5806584 378.491047,55.0837587 C378.372382,56.2308616 378.767934,57.3779645 379.677706,58.2877357 L379.63815,58.2481805 C379.756816,58.5646226 379.954592,58.8019543 380.271035,58.9601753 C380.547921,59.1579517 380.864364,59.2766175 381.101695,59.5139492 C381.774135,60.1863888 382.604796,60.4237204 383.514567,60.5423862 C384.622114,60.7006073 385.690107,60.4237204 386.560323,59.7908361 C387.707426,58.9206201 388.735863,57.8526277 389.803855,56.8637459 C390.832292,55.9539747 391.702508,54.9255376 392.295837,53.6597689 C392.414503,53.382882 392.612279,53.1059951 392.810056,52.8291082 C392.968277,52.6313319 393.047387,52.4731108 392.928722,52.1962239 Z" id="Vol2" fill="#FF0000" transform="translate(357.492928, 43.291944) rotate(-10.000000) translate(-357.492928, -43.291944) "></path>
            </g>
        </g>
    </g>
</svg>