<?xml version="1.0" encoding="UTF-8"?>
<svg width="522px" height="69px" viewBox="0 0 522 69" version="1.1" xmlns="http://www.w3.org/2000/svg" xmlns:xlink="http://www.w3.org/1999/xlink">
    <!-- Generator: Sketch 42 (36781) - http://www.bohemiancoding.com/sketch -->
    <title>grootstrap-logo</title>
    <desc>Created with Sketch.</desc>
    <defs></defs>
    <g id="Page-1" stroke="none" stroke-width="1" fill="none" fill-rule="evenodd">
        <g id="Artboard" transform="translate(-40.000000, -39.000000)">
            <g id="grootstrap-logo" transform="translate(40.000000, 39.000000)">
                <path d="M6.78125,48 L0.78125,42 L0.78125,6 L6.78125,0 L42.78125,0 L36.78125,12 L12.78125,12 L12.78125,36 L30.78125,36 L30.78125,24 L24.78125,18 L42.78125,18 L42.78125,48 L6.78125,48 Z M50.125,48 L50.125,0 L86.125,0 L92.125,6 L92.125,24 L86.125,30 L83.125,30 L92.125,48 L80.125,48 L68.125,24 L68.125,18 L80.125,18 L80.125,12 L62.125,12 L62.125,48 L50.125,48 Z M129.46875,36 L129.46875,12 L111.46875,12 L111.46875,36 L129.46875,36 Z M105.46875,48 L99.46875,42 L99.46875,6 L105.46875,0 L135.46875,0 L141.46875,6 L141.46875,42 L135.46875,48 L105.46875,48 Z M178.8125,36 L178.8125,12 L160.8125,12 L160.8125,36 L178.8125,36 Z M154.8125,48 L148.8125,42 L148.8125,6 L154.8125,0 L184.8125,0 L190.8125,6 L190.8125,42 L184.8125,48 L154.8125,48 Z M213.15625,48 L213.15625,12 L198.15625,12 L198.15625,0 L246.15625,0 L234.15625,12 L225.15625,12 L225.15625,48 L213.15625,48 Z M253.5,48 L253.5,36 L283.5,36 L283.5,30 L259.5,30 L253.5,24 L253.5,6 L259.5,0 L301.5,0 L295.5,12 L265.5,12 L265.5,18 L295.5,18 L295.5,36 L283.5,48 L253.5,48 Z M323.84375,48 L323.84375,12 L308.84375,12 L308.84375,0 L356.84375,0 L344.84375,12 L335.84375,12 L335.84375,48 L323.84375,48 Z M364.1875,48 L364.1875,0 L400.1875,0 L406.1875,6 L406.1875,24 L400.1875,30 L397.1875,30 L406.1875,48 L394.1875,48 L382.1875,24 L382.1875,18 L394.1875,18 L394.1875,12 L376.1875,12 L376.1875,48 L364.1875,48 Z M410.53125,48 L434.53125,0 L446.53125,0 L470.53125,48 L455.53125,48 L452.53125,42 L431.53125,42 L437.53125,30 L446.53125,30 L440.53125,18 L425.53125,48 L410.53125,48 Z M504.875,18 L504.875,12 L486.875,12 L486.875,18 L504.875,18 Z M474.875,48 L474.875,0 L510.875,0 L516.875,6 L516.875,24 L510.875,30 L486.875,30 L486.875,48 L474.875,48 Z" id="GROOTSTRAP" fill="#FFFFFF"></path>
                <path d="M428.569999,66.82 L427.609999,66.64 C427.309999,67.18 427.009999,67.54 426.409999,67.6 C426.109999,67.66 425.689999,67.78 425.389999,67.96 C424.549999,68.5 423.769999,68.56 423.169999,68.32 C422.269999,68.08 421.549999,67.66 420.889999,67.12 C420.169999,66.46 420.049999,65.56 419.989999,64.54 L419.749999,59.74 C419.689999,58.36 419.689999,56.98 419.689999,55.6 C419.689999,54.16 419.689999,52.72 419.749999,51.28 L419.749999,50.26 C419.809999,48.76 419.989999,47.26 419.989999,45.76 C419.989999,43.9 419.869999,42.1 419.809999,40.24 C419.809999,39.88 419.629999,39.64 419.329999,39.46 C419.029999,39.34 418.789999,39.22 418.609999,38.98 C418.489999,38.86 418.369999,38.56 418.429999,38.32 C418.549999,37.96 418.429999,37.78 418.249999,37.6 L417.649999,37.12 C417.529999,37 417.529999,36.88 417.349999,36.58 C417.709999,36.58 417.949999,36.52 418.129999,36.52 L421.669999,37.06 C421.729999,37.06 421.849999,37.06 421.909999,37.12 C422.869999,37.6 423.949999,37.72 425.029999,38.02 C426.049999,38.26 426.889999,38.8 427.549999,39.46 C427.909999,39.82 428.209999,40.36 428.269999,40.96 C428.449999,41.92 428.449999,43 428.449999,44.02 C428.389999,44.38 428.209999,44.86 427.969999,45.22 C427.609999,45.7 427.489999,46.18 427.489999,46.66 C427.489999,47.2 427.489999,47.8 427.369999,48.4 C427.249999,48.94 427.129999,49.54 426.829999,50.08 C426.469999,50.74 426.589999,51.34 426.529999,51.94 C426.469999,52.6 426.529999,53.32 426.889999,53.92 C427.369999,53.56 427.309999,53.2 427.369999,52.84 C427.369999,51.82 427.429999,50.8 427.429999,49.78 C427.429999,49.66 427.549999,49.54 427.609999,49.42 L428.209999,48.52 C428.269999,48.76 428.389999,48.94 428.389999,49.18 C428.329999,49.66 428.449999,50.02 428.569999,50.5 C428.809999,51.34 428.749999,52.3 428.149999,53.38 C428.149999,53.44 428.089999,53.56 428.029999,53.74 C428.209999,53.74 428.389999,53.8 428.569999,53.8 C428.809999,54.4 428.269999,55.3 427.549999,55.66 C427.489999,55.3 427.489999,54.88 427.369999,54.52 C427.309999,54.34 427.009999,54.28 426.769999,54.04 C426.349999,55.42 426.829999,56.32 426.649999,57.58 C426.889999,57.34 427.129999,57.22 427.129999,57.16 C427.069999,56.62 427.369999,56.26 427.909999,56.02 C428.029999,55.96 428.149999,55.78 428.329999,55.6 C428.329999,55.84 428.269999,56.02 428.329999,56.02 C428.809999,56.14 428.629999,56.56 428.569999,56.98 C428.449999,57.34 428.509999,57.7 428.509999,58 C429.049999,63.52 432.949999,54.7 433.669999,53.32 C434.209999,52.54 434.689999,51.7 435.289999,50.92 C436.609999,48.88 438.049999,46.9 439.429999,44.92 C440.209999,43.78 441.049999,42.7 441.889999,41.56 L444.409999,37.9 L448.009999,32.56 C448.369999,31.96 448.789999,31.42 449.209999,30.82 C449.389999,30.52 449.629999,30.34 449.929999,30.28 C450.409999,30.16 450.949999,29.98 451.429999,29.98 C452.089999,29.92 452.209999,30.16 451.969999,30.82 C451.789999,31.3 451.729999,31.78 451.549999,32.2 C451.429999,32.5 451.249999,32.8 451.069999,33.1 C450.709999,33.7 450.409999,34.3 450.049999,34.84 C449.929999,35.08 449.809999,35.32 449.629999,35.5 C448.969999,36.52 448.189999,37.48 447.529999,38.5 C447.229999,38.92 447.049999,39.46 446.689999,39.94 C445.489999,41.8 444.229999,43.66 442.969999,45.52 L442.789999,45.76 C441.529999,47.08 440.809999,48.7 439.669999,50.14 C439.669999,50.2 439.609999,50.26 439.549999,50.32 C439.069999,51.34 438.409999,52.3 437.689999,53.32 C437.089999,54.22 436.609999,55.24 436.009999,56.14 C435.229999,57.34 434.269999,58.54 433.429999,59.74 L432.829999,60.58 C432.229999,61.78 431.269999,62.86 430.309999,63.88 C429.769999,64.54 429.229999,65.2 429.049999,65.98 C428.989999,66.22 428.689999,66.52 428.569999,66.82 Z M420.709999,63.52 L420.229999,63.7 C420.349999,64.66 420.349999,64.66 420.769999,64.72 C420.829999,65.02 420.469999,65.44 421.009999,65.62 C421.309999,64.6 421.069999,63.82 420.769999,63.04 C420.769999,63.22 420.769999,63.34 420.709999,63.52 Z M426.589999,58.36 C426.469999,58.42 426.289999,58.48 426.289999,58.54 C426.289999,58.9 426.169999,59.26 426.529999,59.44 C426.529999,59.08 426.589999,58.72 426.589999,58.36 Z M426.709999,58.18 L426.589999,58.36 C426.649999,58.3 426.709999,58.3 426.769999,58.3 C426.889999,58.24 426.949999,58.18 427.009999,58.06 C427.009999,58.06 426.949999,58 426.949999,57.94 C426.829999,58 426.769999,58.06 426.709999,58.18 Z M448.83,51.64 C448.83,51.58 448.83,51.52 448.77,51.46 C448.11,50.38 447.81,49.06 447.63,47.68 C447.45,46.66 447.75,45.7 448.29,44.74 C448.35,44.62 448.47,44.5 448.71,44.44 C449.19,44.02 449.79,43.66 450.51,43.24 C451.05,42.88 451.77,42.82 452.43,42.94 C452.91,42.94 454.23,44.14 454.53,44.38 C454.89,44.68 455.25,45.04 455.67,45.28 C456.21,45.76 456.57,46.3 456.87,47.08 C457.05,47.56 457.17,47.98 457.41,48.4 C457.59,48.94 457.65,49.54 457.77,50.14 C457.83,50.68 457.83,51.1 457.95,51.58 C457.95,51.82 458.01,52.3 458.01,52.36 C457.95,53.08 458.13,53.74 457.95,54.4 C457.77,54.76 458.13,55.18 458.61,55.18 C461.55,55 462.69,55.42 465.57,54.94 L466.53,54.46 L466.95,54.22 C467.07,54.4 467.01,54.64 466.95,54.76 C466.77,55.06 467.37,55.18 467.13,55.42 C465.33,57.34 459.81,57.28 457.65,57.28 L457.47,57.28 C457.29,57.28 457.11,57.34 457.11,57.46 C457.11,57.58 457.05,57.64 456.99,57.76 C456.81,58.78 456.27,59.74 455.85,60.76 C455.55,61.48 455.13,62.02 454.71,62.56 C454.47,62.92 454.23,63.34 453.87,63.58 L453.45,63.88 C453.33,63.94 453.15,64.06 453.09,64.24 C452.61,64.78 452.07,65.2 451.41,65.38 C451.29,65.38 450.99,65.5 450.81,65.62 C449.97,65.86 449.13,65.8 448.35,65.68 C447.27,65.56 446.55,64.78 445.95,63.76 L445.41,62.14 C445.29,61.06 445.23,59.98 445.35,58.84 C445.47,57.7 445.83,56.62 446.37,55.54 C446.91,54.22 447.69,53.08 448.59,52 C448.77,51.94 448.77,51.82 448.83,51.64 Z M455.97,50.5 C456.09,50.02 456.09,49.48 455.91,49.06 C455.79,48.34 455.67,47.8 455.49,47.14 C455.31,46.54 455.07,46.06 454.65,45.7 C454.41,45.46 454.23,45.16 453.87,44.98 C453.51,44.68 453.21,44.44 452.79,44.2 C452.07,43.6 450.75,44.86 450.33,45.28 C448.71,47.56 450.27,50.68 451.77,52.3 C453.51,55.72 456.69,54.52 455.97,50.5 Z M451.71,58.18 C451.05,59.14 450.93,59.68 450.57,60.76 C450.51,61.06 450.51,61.42 450.51,61.72 C450.39,61.84 450.51,61.9 450.57,62.02 C450.69,62.32 450.93,62.62 451.23,62.74 C451.29,62.74 451.29,62.74 451.35,62.68 L451.59,62.5 C452.61,61.42 453.33,60.04 453.93,58.66 C454.23,58.18 454.35,57.64 454.53,57.22 C453.15,56.62 452.49,57.16 451.71,58.18 Z M457.95,51.58 C457.89,51.46 457.89,51.4 457.95,51.64 L457.95,51.58 Z M458.01,51.7 C458.01,51.7 457.95,51.7 457.95,51.64 C457.95,51.7 458.01,51.7 458.01,51.7 Z M488.59,53.38 C489.43,53.26 488.95,54.52 488.11,56.02 C487.81,56.62 486.79,57.94 486.79,58.6 C486.73,58.66 486.55,58.84 486.43,58.9 C486.25,59.08 486.07,59.32 485.95,59.62 C485.83,59.92 485.65,60.04 485.53,60.28 C484.69,61.78 484.15,62.62 482.77,63.94 C482.41,64.24 479.23,67.3 478.99,67.6 C477.25,69.04 474.91,68.38 473.17,68.44 C472.69,68.44 472.21,68.38 471.91,68.2 C471.37,67.9 470.17,67.42 469.81,66.88 C469.27,65.56 467.89,64.66 467.77,62.8 C467.71,62.32 467.47,62.02 467.41,61.54 C467.47,59.62 467.77,57.7 468.01,55.72 C468.37,54.34 468.67,52.84 468.91,51.46 C469.51,48.88 469.69,48.58 470.83,46.24 C471.43,44.68 471.97,44.56 472.57,43 C472.99,42.16 473.47,41.32 473.95,40.6 C474.31,39.7 474.91,38.86 475.45,37.96 C476.59,35.98 477.85,34.24 479.17,32.8 C480.07,31.9 481.03,30.94 481.93,30.16 C482.47,29.74 483.01,29.26 483.55,29.08 C483.73,28.96 483.91,28.9 484.09,28.84 C484.93,28.78 485.71,28.9 486.31,29.5 C486.91,30.04 487.09,30.88 486.91,32.02 C486.79,32.74 486.73,33.46 486.55,34.12 C486.49,34.66 486.25,35.14 485.95,35.74 C485.53,36.76 485.05,37.72 484.39,38.68 L483.07,41.02 C482.35,42.1 481.75,43.24 481.03,44.26 C479.77,45.94 478.69,47.74 477.55,49.42 C475.69,52.6 475.87,53.14 475.21,56.32 C474.97,57.58 475.09,58.3 475.03,59.56 C475.09,59.92 475.27,62.26 475.33,62.5 C475.51,63.34 475.69,63.64 476.05,64.42 C476.17,64.66 477.01,64.84 477.31,64.96 C477.73,65.26 480.91,63.1 481.33,62.8 C482.29,62.26 483.07,61.36 483.91,60.52 C484.81,59.68 485.23,58.72 486.01,57.58 C487.09,56.14 487.45,54.94 488.59,53.38 Z M476.23,48.82 C477.13,47.5 477.73,46.6 478.51,45.22 C480.43,42.16 480.73,41.68 482.47,38.38 C483.13,37.12 483.67,35.86 484.33,34.6 C484.63,33.7 484.81,32.8 484.93,31.9 C485.05,31.6 485.05,31.42 484.75,31.54 C484.45,31.6 484.27,31.72 484.09,31.84 C483.31,32.14 482.59,32.74 482.05,33.58 C481.63,34.06 481.33,34.6 480.85,35.08 C480.31,35.74 480.01,36.4 479.77,37.18 L478.87,39.1 C478.45,40.36 477.85,41.62 477.25,42.88 L476.59,44.74 C475.87,46.78 476.17,45.76 475.51,47.8 C475.33,48.28 475.45,49.66 476.23,48.82 Z M496.25,61.9 C496.31,61.48 496.07,61.3 495.83,61.06 C494.87,60.22 493.73,60.04 492.53,59.8 C492.47,59.74 492.29,59.86 492.23,59.92 C491.39,60.94 490.85,62.02 490.79,63.46 C490.79,64.06 490.97,64.66 491.27,65.14 C491.57,65.62 491.93,65.92 492.47,65.92 C492.47,65.92 492.53,65.92 492.59,65.98 C493.19,66.46 493.73,66.22 494.33,66.04 C494.63,65.98 494.75,65.8 494.93,65.56 C495.59,64.6 495.77,63.4 496.19,62.26 C496.25,62.14 496.25,62.02 496.25,61.9 Z M514.41,66.34 C514.53,66.1 514.53,65.98 514.59,65.92 C514.53,65.8 514.53,65.74 514.47,65.74 C514.77,65.38 514.95,65.02 515.25,64.66 C515.31,64.6 515.55,64.6 515.67,64.6 C516.03,64.54 516.33,64.48 516.45,63.94 C516.51,63.7 516.81,63.46 517.05,63.16 C517.17,63.04 518.37,61.42 518.49,61.18 C518.01,60.76 517.47,60.4 516.99,60.04 C516.27,59.5 515.49,59.2 514.53,59.02 C513.45,58.84 512.49,58.66 511.35,58.72 C505.77,59.32 512.43,55.36 512.79,53.38 C513.69,51.94 516.45,47.86 517.41,46.48 C518.13,45.52 518.91,44.62 519.45,43.54 L519.87,42.58 C520.59,41.26 521.13,39.88 521.49,38.44 C521.79,37.24 521.67,36.1 520.77,35.38 C519.57,34.36 515.97,32.92 514.17,33.34 C512.73,33.82 511.41,34.54 510.15,35.44 C509.61,35.86 509.01,36.4 508.59,36.88 C507.57,38.38 506.79,39.94 506.43,41.68 C506.37,42.22 507.21,43.54 507.63,43.9 C507.87,44.2 510.33,45.58 510.69,45.82 C511.23,46.18 512.01,45.7 512.43,44.98 C512.55,44.74 512.73,44.56 512.79,44.32 L513.75,42.4 C514.65,41.02 515.49,39.76 516.93,38.86 C521.43,35.92 517.53,41.8 516.63,43.3 C515.13,45.64 511.95,50.74 510.15,52.78 C508.83,54.46 507.39,56.02 506.01,57.64 C505.41,58.36 504.81,59.14 504.21,59.98 C504.09,60.1 504.09,60.22 504.03,60.34 C503.79,61.12 503.67,61.9 503.19,62.62 C503.07,62.8 503.07,63.04 503.07,63.16 C503.19,63.82 503.37,64.48 503.85,64.9 C504.15,65.14 504.45,65.5 504.69,65.74 C505.17,66.16 505.71,66.46 506.43,66.46 C507.27,66.4 508.11,66.46 508.89,66.52 C510.57,66.52 512.37,66.7 514.17,66.76 L513.99,66.34 L514.41,66.34 Z" id="Vol.2" fill="#FF0000"></path>
            </g>
        </g>
    </g>
</svg>