<?xml version="1.0" standalone="no"?>
<!DOCTYPE svg PUBLIC "-//W3C//DTD SVG 20010904//EN"
 "http://www.w3.org/TR/2001/REC-SVG-20010904/DTD/svg10.dtd">
<svg version="1.0" xmlns="http://www.w3.org/2000/svg"
 width="16.000000pt" height="16.000000pt" viewBox="0 0 16.000000 16.000000"
 preserveAspectRatio="xMidYMid meet">
<metadata>
Created by potrace 1.11, written by Peter Selinger 2001-2013
</metadata>
<g transform="translate(0.000000,16.000000) scale(0.006154,-0.006154)"
fill="#000000" stroke="none">
<path d="M1300 2555 c0 -23 -3 -24 -77 -27 -77 -3 -78 -3 -81 -30 -3 -27 -6
-28 -58 -28 -51 0 -54 -1 -54 -25 0 -20 -5 -25 -26 -25 -24 0 -25 -2 -22 -52
3 -46 6 -53 26 -56 16 -3 22 -10 22 -28 0 -20 5 -24 30 -24 l30 0 0 -130 0
-130 25 0 c24 0 25 -3 25 -55 0 -52 1 -55 25 -55 20 0 25 -5 25 -24 0 -19 6
-25 28 -28 21 -2 27 -8 27 -28 0 -23 -4 -25 -52 -28 -49 -3 -53 -5 -53 -28 0
-23 -2 -24 -80 -24 -79 0 -80 0 -80 -25 0 -24 -3 -25 -55 -25 -52 0 -55 1 -55
25 0 20 -5 25 -25 25 -24 0 -25 3 -25 55 0 52 -1 55 -25 55 -20 0 -25 5 -25
25 0 21 -5 25 -30 25 -25 0 -30 4 -30 25 0 21 5 25 30 25 25 0 30 4 30 24 0
22 -5 25 -55 31 -49 7 -55 10 -55 31 0 22 -4 24 -50 24 l-50 0 0 -80 c0 -79 0
-80 25 -80 20 0 25 -5 25 -25 0 -20 5 -25 25 -25 24 0 25 -3 25 -55 0 -52 1
-55 24 -55 23 0 25 -4 28 -52 3 -49 5 -53 31 -56 21 -3 27 -9 27 -28 0 -19 5
-24 25 -24 20 0 25 -5 25 -25 0 -25 1 -25 80 -25 79 0 80 0 80 25 0 21 5 25
30 25 25 0 30 -4 30 -25 0 -18 5 -25 20 -25 15 0 20 7 20 25 0 24 3 25 55 25
l55 0 0 -55 c0 -52 -1 -55 -25 -55 l-25 0 0 -154 0 -154 -64 -7 c-36 -4 -83
-5 -105 -3 -39 3 -41 2 -41 -24 l0 -28 -80 0 c-79 0 -80 0 -80 -25 0 -20 -5
-25 -25 -25 -25 0 -25 -1 -25 -80 0 -79 0 -80 25 -80 l25 0 0 -105 0 -105 25
0 25 0 0 -135 0 -135 25 0 25 0 0 -130 0 -130 30 0 c27 0 30 -3 30 -30 0 -29
1 -30 50 -30 47 0 50 -2 50 -25 l0 -25 270 0 270 0 0 25 c0 23 3 25 50 25 49
0 50 1 50 30 0 27 3 30 30 30 l30 0 0 130 0 130 25 0 25 0 0 135 0 135 25 0
25 0 0 104 0 105 28 3 c27 3 27 4 27 78 0 74 0 75 -27 78 -22 3 -28 9 -28 28
0 23 -2 24 -80 24 l-80 0 0 28 0 27 -77 -3 c-43 -2 -101 -1 -130 3 l-53 6 0
185 0 184 25 0 c20 0 25 5 25 25 0 24 3 25 55 25 52 0 55 -1 55 -25 l0 -25
105 0 105 0 0 25 c0 20 5 25 25 25 20 0 25 5 25 24 0 19 6 25 28 28 25 3 27 7
30 56 3 48 5 52 28 52 19 0 24 5 24 25 0 20 5 25 25 25 24 0 25 3 25 55 0 52
1 55 25 55 20 0 25 5 25 25 0 23 -4 25 -44 25 -38 0 -45 -3 -49 -22 l-4 -23
-2 23 c-1 18 -7 22 -31 22 -25 0 -30 -4 -30 -25 0 -20 -5 -25 -25 -25 -24 0
-25 -3 -25 -55 0 -52 -1 -55 -25 -55 -20 0 -25 -5 -25 -25 0 -20 -5 -25 -25
-25 -20 0 -25 -5 -25 -25 0 -25 -1 -25 -80 -25 -79 0 -80 0 -80 25 0 24 -3 25
-55 25 l-55 0 0 55 c0 52 1 55 25 55 20 0 25 5 25 25 0 21 5 25 30 25 30 0 30
1 30 55 0 52 1 55 25 55 l25 0 0 130 0 130 25 0 c25 0 25 1 25 80 0 79 0 80
-25 80 -20 0 -25 5 -25 25 0 20 -5 25 -24 25 -19 0 -25 6 -28 28 l-3 27 -107
3 c-107 3 -108 3 -108 27 0 20 -5 25 -25 25 -20 0 -25 -5 -25 -25z m50 -55 c0
-13 -7 -20 -20 -20 -13 0 -20 7 -20 20 0 13 7 20 20 20 13 0 20 -7 20 -20z
m-161 -57 c-2 -24 -2 -25 -6 -5 -5 26 -20 29 -26 5 -4 -14 -5 -12 -6 5 -1 16
5 22 19 22 15 0 20 -6 19 -27z m94 20 c-12 -2 -24 -12 -26 -21 -3 -12 -5 -10
-6 6 -1 18 4 22 27 21 22 -1 23 -2 5 -6z m-190 -60 c-24 -2 -43 -8 -43 -13 0
-5 19 -11 43 -13 l42 -4 -47 -1 c-42 -2 -48 1 -48 18 0 17 6 20 48 18 l47 -1
-42 -4z m147 -383 c0 -13 -7 -20 -20 -20 -13 0 -20 7 -20 20 0 13 7 20 20 20
13 0 20 -7 20 -20z m320 0 c0 -13 -7 -20 -20 -20 -13 0 -20 7 -20 20 0 13 7
20 20 20 13 0 20 -7 20 -20z m-900 -55 c0 -20 -5 -25 -25 -25 -20 0 -25 5 -25
25 0 20 5 25 25 25 20 0 25 -5 25 -25z m530 -265 c0 -13 -7 -20 -20 -20 -13 0
-20 7 -20 20 0 13 7 20 20 20 13 0 20 -7 20 -20z m640 0 c0 -15 -6 -20 -27
-19 -24 2 -25 2 -5 6 12 2 22 8 22 13 0 5 -10 11 -22 13 -20 4 -19 4 5 6 21 1
27 -4 27 -19z m-800 -50 c0 -13 -7 -20 -20 -20 -13 0 -20 7 -20 20 0 13 7 20
20 20 13 0 20 -7 20 -20z m227 -57 c-2 -16 -4 -3 -4 27 0 30 2 43 4 28 2 -16
2 -40 0 -55z m513 57 c0 -13 -7 -20 -20 -20 -13 0 -20 7 -20 20 0 13 7 20 20
20 13 0 20 -7 20 -20z m-420 -105 c0 -20 -5 -25 -22 -24 -17 1 -19 2 -5 6 9 2
17 13 17 24 0 10 2 19 5 19 3 0 5 -11 5 -25z m-420 -590 l0 -25 370 0 370 0
-1 -22 c-1 -17 -2 -19 -6 -5 -4 15 -19 17 -129 17 -117 0 -124 -1 -124 -20 0
-19 -7 -20 -110 -20 l-110 0 -2 -82 -2 -83 -3 77 -4 76 -44 4 -45 3 0 -72 c0
-71 0 -72 28 -75 l27 -3 3 -242 2 -243 -35 0 -35 0 0 80 c0 79 0 80 -25 80
l-25 0 0 105 0 105 -25 0 -25 0 0 130 0 130 -30 0 c-27 0 -30 3 -30 30 0 28
-3 30 -37 30 -74 0 -113 11 -113 31 0 17 9 19 80 19 79 0 80 0 80 -25z m900 5
c0 -18 -7 -20 -75 -20 -68 0 -75 2 -75 20 0 18 7 20 75 20 68 0 75 -2 75 -20z
m-943 -182 c-2 -29 -3 -8 -3 47 0 55 1 79 3 53 2 -26 2 -71 0 -100z m76 -311
c18 -4 18 -4 -5 -6 l-28 -1 2 133 2 132 3 -127 c3 -122 4 -127 26 -131z m277
-37 l0 -290 -75 0 -75 0 1 28 c2 23 2 24 6 5 4 -21 10 -23 69 -23 l64 0 0 285
c0 157 2 285 5 285 3 0 5 -130 5 -290z m358 37 c12 -3 11 -5 -5 -6 -21 -1 -23
3 -21 52 l2 52 3 -47 c3 -33 9 -48 21 -51z m-40 -144 l-2 -128 -3 123 c-4 133
-20 165 -26 50 l-3 -73 -2 78 c-2 71 0 77 18 77 19 0 20 -6 18 -127z m-55 -40
c-7 -2 -19 -2 -25 0 -7 3 -2 5 12 5 14 0 19 -2 13 -5z m-480 -30 c-7 -2 -19
-2 -25 0 -7 3 -2 5 12 5 14 0 19 -2 13 -5z m24 -45 c-3 -7 -5 -2 -5 12 0 14 2
19 5 13 2 -7 2 -19 0 -25z m463 -43 c0 -23 -3 -25 -50 -25 -46 0 -50 2 -49 23
1 16 2 18 6 5 3 -13 15 -18 44 -18 32 0 39 3 39 20 0 11 2 20 5 20 3 0 5 -11
5 -25z"/>
<path d="M1320 2500 c0 -5 5 -10 10 -10 6 0 10 5 10 10 0 6 -4 10 -10 10 -5 0
-10 -4 -10 -10z"/>
<path d="M1210 2020 c0 -5 5 -10 10 -10 6 0 10 5 10 10 0 6 -4 10 -10 10 -5 0
-10 -4 -10 -10z"/>
<path d="M1530 2020 c0 -5 5 -10 10 -10 6 0 10 5 10 10 0 6 -4 10 -10 10 -5 0
-10 -4 -10 -10z"/>
<path d="M1160 1700 c0 -5 5 -10 10 -10 6 0 10 5 10 10 0 6 -4 10 -10 10 -5 0
-10 -4 -10 -10z"/>
<path d="M1000 1650 c0 -5 5 -10 10 -10 6 0 10 5 10 10 0 6 -4 10 -10 10 -5 0
-10 -4 -10 -10z"/>
<path d="M1740 1650 c0 -5 5 -10 10 -10 6 0 10 5 10 10 0 6 -4 10 -10 10 -5 0
-10 -4 -10 -10z"/>
<path d="M780 960 c0 -5 9 -10 20 -10 11 0 20 5 20 10 0 6 -9 10 -20 10 -11 0
-20 -4 -20 -10z"/>
<path d="M1690 960 c0 -6 28 -10 65 -10 37 0 65 4 65 10 0 6 -28 10 -65 10
-37 0 -65 -4 -65 -10z"/>
<path d="M980 1490 c0 -15 7 -20 25 -20 18 0 25 5 25 20 0 15 -7 20 -25 20
-18 0 -25 -5 -25 -20z"/>
<path d="M930 1435 c0 -20 5 -25 25 -25 20 0 25 5 25 25 0 20 -5 25 -25 25
-20 0 -25 -5 -25 -25z"/>
</g>
</svg>
